<mxfile host="app.diagrams.net">
  <diagram name="Payment Model Table ERD" id="payment-model-table-erd">
    <mxGraphModel dx="692" dy="402" grid="1" gridSize="10" guides="1" tooltips="1" connect="1" arrows="1" fold="1" page="1" pageScale="1" pageWidth="900" pageHeight="670" math="0" shadow="0">
      <root>
        <mxCell id="0" />
        <mxCell id="1" parent="0" />
        <!-- Tiêu đề lớn -->
        <mxCell id="bigTitle" value="PAYMENT MODEL - ERD TABLE" style="text;html=1;strokeColor=none;fillColor=none;align=center;fontSize=24;fontStyle=1;fontColor=#4472C4;" parent="1" vertex="1">
          <mxGeometry x="50" y="20" width="800" height="50" as="geometry" />
        </mxCell>
        <!-- Bảng ERD -->
        <mxCell id="paymentTable" value="" style="shape=table;startSize=0;container=1;collapsible=0;childLayout=tableLayout;fixedRows=1;rowLines=0;fontStyle=1;align=center;resizeLast=1;strokeColor=#000000;fillColor=#ffffff;" parent="1" vertex="1">
          <mxGeometry x="50" y="80" width="800" height="540" as="geometry" />
        </mxCell>
        <!-- Header -->
        <mxCell id="header" value="" style="shape=tableRow;horizontal=0;fillColor=#4472C4;strokeColor=#000000;" parent="paymentTable" vertex="1">
          <mxGeometry width="800" height="40" as="geometry" />
        </mxCell>
        <mxCell id="h1" value="Tên trường" style="shape=partialRectangle;connectable=0;fillColor=#4472C4;align=center;fontStyle=1;fontSize=12;fontColor=#ffffff;" parent="header" vertex="1"><mxGeometry width="120" height="40" as="geometry" /></mxCell>
        <mxCell id="h2" value="Kiểu dữ liệu" style="shape=partialRectangle;connectable=0;fillColor=#4472C4;align=center;fontStyle=1;fontSize=12;fontColor=#ffffff;" parent="header" vertex="1"><mxGeometry x="120" width="90" height="40" as="geometry" /></mxCell>
        <mxCell id="h3" value="Ràng buộc/Enum" style="shape=partialRectangle;connectable=0;fillColor=#4472C4;align=center;fontStyle=1;fontSize=12;fontColor=#ffffff;" parent="header" vertex="1"><mxGeometry x="210" width="180" height="40" as="geometry" /></mxCell>
        <mxCell id="h4" value="Giá trị mặc định" style="shape=partialRectangle;connectable=0;fillColor=#4472C4;align=center;fontStyle=1;fontSize=12;fontColor=#ffffff;" parent="header" vertex="1"><mxGeometry x="390" width="110" height="40" as="geometry" /></mxCell>
        <mxCell id="h5" value="Mô tả" style="shape=partialRectangle;connectable=0;fillColor=#4472C4;align=center;fontStyle=1;fontSize=12;fontColor=#ffffff;" parent="header" vertex="1"><mxGeometry x="500" width="300" height="40" as="geometry" /></mxCell>
        <!-- Data Rows -->
        <mxCell id="row1" value="" style="shape=tableRow;horizontal=0;fillColor=#FFE6CC;strokeColor=#000000;" parent="paymentTable" vertex="1"><mxGeometry y="40" width="800" height="26" as="geometry" /></mxCell>
        <mxCell id="r1c1" value="_id" style="shape=partialRectangle;connectable=0;fillColor=#FFE6CC;align=left;fontStyle=1;" parent="row1" vertex="1"><mxGeometry width="120" height="26" as="geometry" /></mxCell>
        <mxCell id="r1c2" value="ObjectId" style="shape=partialRectangle;connectable=0;fillColor=#FFE6CC;align=left;" parent="row1" vertex="1"><mxGeometry x="120" width="90" height="26" as="geometry" /></mxCell>
        <mxCell id="r1c3" value="Primary Key" style="shape=partialRectangle;connectable=0;fillColor=#FFE6CC;align=left;" parent="row1" vertex="1"><mxGeometry x="210" width="180" height="26" as="geometry" /></mxCell>
        <mxCell id="r1c4" value="Tự động" style="shape=partialRectangle;connectable=0;fillColor=#FFE6CC;align=left;" parent="row1" vertex="1"><mxGeometry x="390" width="110" height="26" as="geometry" /></mxCell>
        <mxCell id="r1c5" value="Khóa chính MongoDB" style="shape=partialRectangle;connectable=0;fillColor=#FFE6CC;align=left;" parent="row1" vertex="1"><mxGeometry x="500" width="300" height="26" as="geometry" /></mxCell>
        <mxCell id="row2" value="" style="shape=tableRow;horizontal=0;fillColor=#ffffff;strokeColor=#000000;" parent="paymentTable" vertex="1"><mxGeometry y="66" width="800" height="26" as="geometry" /></mxCell>
        <mxCell id="r2c1" value="user_id" style="shape=partialRectangle;connectable=0;fillColor=#ffffff;align=left;" parent="row2" vertex="1"><mxGeometry width="120" height="26" as="geometry" /></mxCell>
        <mxCell id="r2c2" value="ObjectId" style="shape=partialRectangle;connectable=0;fillColor=#ffffff;align=left;" parent="row2" vertex="1"><mxGeometry x="120" width="90" height="26" as="geometry" /></mxCell>
        <mxCell id="r2c3" value="ref: User, required, index" style="shape=partialRectangle;connectable=0;fillColor=#ffffff;align=left;" parent="row2" vertex="1"><mxGeometry x="210" width="180" height="26" as="geometry" /></mxCell>
        <mxCell id="r2c4" value="" style="shape=partialRectangle;connectable=0;fillColor=#ffffff;align=left;" parent="row2" vertex="1"><mxGeometry x="390" width="110" height="26" as="geometry" /></mxCell>
        <mxCell id="r2c5" value="Người thanh toán (User)" style="shape=partialRectangle;connectable=0;fillColor=#ffffff;align=left;" parent="row2" vertex="1"><mxGeometry x="500" width="300" height="26" as="geometry" /></mxCell>
        <mxCell id="row3" value="" style="shape=tableRow;horizontal=0;fillColor=#E6F3FF;strokeColor=#000000;" parent="paymentTable" vertex="1"><mxGeometry y="92" width="800" height="26" as="geometry" /></mxCell>
        <mxCell id="r3c1" value="plan_type" style="shape=partialRectangle;connectable=0;fillColor=#E6F3FF;align=left;" parent="row3" vertex="1"><mxGeometry width="120" height="26" as="geometry" /></mxCell>
        <mxCell id="r3c2" value="String" style="shape=partialRectangle;connectable=0;fillColor=#E6F3FF;align=left;" parent="row3" vertex="1"><mxGeometry x="120" width="90" height="26" as="geometry" /></mxCell>
        <mxCell id="r3c3" value="enum: ['monthly','yearly'], required" style="shape=partialRectangle;connectable=0;fillColor=#E6F3FF;align=left;" parent="row3" vertex="1"><mxGeometry x="210" width="180" height="26" as="geometry" /></mxCell>
        <mxCell id="r3c4" value="" style="shape=partialRectangle;connectable=0;fillColor=#E6F3FF;align=left;" parent="row3" vertex="1"><mxGeometry x="390" width="110" height="26" as="geometry" /></mxCell>
        <mxCell id="r3c5" value="Loại gói thanh toán" style="shape=partialRectangle;connectable=0;fillColor=#E6F3FF;align=left;" parent="row3" vertex="1"><mxGeometry x="500" width="300" height="26" as="geometry" /></mxCell>
        <mxCell id="row4" value="" style="shape=tableRow;horizontal=0;fillColor=#ffffff;strokeColor=#000000;" parent="paymentTable" vertex="1"><mxGeometry y="118" width="800" height="26" as="geometry" /></mxCell>
        <mxCell id="r4c1" value="plan_name" style="shape=partialRectangle;connectable=0;fillColor=#ffffff;align=left;" parent="row4" vertex="1"><mxGeometry width="120" height="26" as="geometry" /></mxCell>
        <mxCell id="r4c2" value="String" style="shape=partialRectangle;connectable=0;fillColor=#ffffff;align=left;" parent="row4" vertex="1"><mxGeometry x="120" width="90" height="26" as="geometry" /></mxCell>
        <mxCell id="r4c3" value="required" style="shape=partialRectangle;connectable=0;fillColor=#ffffff;align=left;" parent="row4" vertex="1"><mxGeometry x="210" width="180" height="26" as="geometry" /></mxCell>
        <mxCell id="r4c4" value="" style="shape=partialRectangle;connectable=0;fillColor=#ffffff;align=left;" parent="row4" vertex="1"><mxGeometry x="390" width="110" height="26" as="geometry" /></mxCell>
        <mxCell id="r4c5" value="Tên gói" style="shape=partialRectangle;connectable=0;fillColor=#ffffff;align=left;" parent="row4" vertex="1"><mxGeometry x="500" width="300" height="26" as="geometry" /></mxCell>
        <mxCell id="row5" value="" style="shape=tableRow;horizontal=0;fillColor=#E6F3FF;strokeColor=#000000;" parent="paymentTable" vertex="1"><mxGeometry y="144" width="800" height="26" as="geometry" /></mxCell>
        <mxCell id="r5c1" value="amount" style="shape=partialRectangle;connectable=0;fillColor=#E6F3FF;align=left;" parent="row5" vertex="1"><mxGeometry width="120" height="26" as="geometry" /></mxCell>
        <mxCell id="r5c2" value="Number" style="shape=partialRectangle;connectable=0;fillColor=#E6F3FF;align=left;" parent="row5" vertex="1"><mxGeometry x="120" width="90" height="26" as="geometry" /></mxCell>
        <mxCell id="r5c3" value="required" style="shape=partialRectangle;connectable=0;fillColor=#E6F3FF;align=left;" parent="row5" vertex="1"><mxGeometry x="210" width="180" height="26" as="geometry" /></mxCell>
        <mxCell id="r5c4" value="" style="shape=partialRectangle;connectable=0;fillColor=#E6F3FF;align=left;" parent="row5" vertex="1"><mxGeometry x="390" width="110" height="26" as="geometry" /></mxCell>
        <mxCell id="r5c5" value="Số tiền thanh toán" style="shape=partialRectangle;connectable=0;fillColor=#E6F3FF;align=left;" parent="row5" vertex="1"><mxGeometry x="500" width="300" height="26" as="geometry" /></mxCell>
        <mxCell id="row6" value="" style="shape=tableRow;horizontal=0;fillColor=#ffffff;strokeColor=#000000;" parent="paymentTable" vertex="1"><mxGeometry y="170" width="800" height="26" as="geometry" /></mxCell>
        <mxCell id="r6c1" value="currency" style="shape=partialRectangle;connectable=0;fillColor=#ffffff;align=left;" parent="row6" vertex="1"><mxGeometry width="120" height="26" as="geometry" /></mxCell>
        <mxCell id="r6c2" value="String" style="shape=partialRectangle;connectable=0;fillColor=#ffffff;align=left;" parent="row6" vertex="1"><mxGeometry x="120" width="90" height="26" as="geometry" /></mxCell>
        <mxCell id="r6c3" value="default: 'VND'" style="shape=partialRectangle;connectable=0;fillColor=#ffffff;align=left;" parent="row6" vertex="1"><mxGeometry x="210" width="180" height="26" as="geometry" /></mxCell>
        <mxCell id="r6c4" value="'VND'" style="shape=partialRectangle;connectable=0;fillColor=#ffffff;align=left;" parent="row6" vertex="1"><mxGeometry x="390" width="110" height="26" as="geometry" /></mxCell>
        <mxCell id="r6c5" value="Đơn vị tiền tệ" style="shape=partialRectangle;connectable=0;fillColor=#ffffff;align=left;" parent="row6" vertex="1"><mxGeometry x="500" width="300" height="26" as="geometry" /></mxCell>
        <mxCell id="row7" value="" style="shape=tableRow;horizontal=0;fillColor=#E6F3FF;strokeColor=#000000;" parent="paymentTable" vertex="1"><mxGeometry y="196" width="800" height="26" as="geometry" /></mxCell>
        <mxCell id="r7c1" value="momo_order_id" style="shape=partialRectangle;connectable=0;fillColor=#E6F3FF;align=left;" parent="row7" vertex="1"><mxGeometry width="120" height="26" as="geometry" /></mxCell>
        <mxCell id="r7c2" value="String" style="shape=partialRectangle;connectable=0;fillColor=#E6F3FF;align=left;" parent="row7" vertex="1"><mxGeometry x="120" width="90" height="26" as="geometry" /></mxCell>
        <mxCell id="r7c3" value="unique, required, index" style="shape=partialRectangle;connectable=0;fillColor=#E6F3FF;align=left;" parent="row7" vertex="1"><mxGeometry x="210" width="180" height="26" as="geometry" /></mxCell>
        <mxCell id="r7c4" value="" style="shape=partialRectangle;connectable=0;fillColor=#E6F3FF;align=left;" parent="row7" vertex="1"><mxGeometry x="390" width="110" height="26" as="geometry" /></mxCell>
        <mxCell id="r7c5" value="Mã đơn hàng MoMo" style="shape=partialRectangle;connectable=0;fillColor=#E6F3FF;align=left;" parent="row7" vertex="1"><mxGeometry x="500" width="300" height="26" as="geometry" /></mxCell>
        <mxCell id="row8" value="" style="shape=tableRow;horizontal=0;fillColor=#ffffff;strokeColor=#000000;" parent="paymentTable" vertex="1"><mxGeometry y="222" width="800" height="26" as="geometry" /></mxCell>
        <mxCell id="r8c1" value="momo_request_id" style="shape=partialRectangle;connectable=0;fillColor=#ffffff;align=left;" parent="row8" vertex="1"><mxGeometry width="120" height="26" as="geometry" /></mxCell>
        <mxCell id="r8c2" value="String" style="shape=partialRectangle;connectable=0;fillColor=#ffffff;align=left;" parent="row8" vertex="1"><mxGeometry x="120" width="90" height="26" as="geometry" /></mxCell>
        <mxCell id="r8c3" value="required" style="shape=partialRectangle;connectable=0;fillColor=#ffffff;align=left;" parent="row8" vertex="1"><mxGeometry x="210" width="180" height="26" as="geometry" /></mxCell>
        <mxCell id="r8c4" value="" style="shape=partialRectangle;connectable=0;fillColor=#ffffff;align=left;" parent="row8" vertex="1"><mxGeometry x="390" width="110" height="26" as="geometry" /></mxCell>
        <mxCell id="r8c5" value="Mã request MoMo" style="shape=partialRectangle;connectable=0;fillColor=#ffffff;align=left;" parent="row8" vertex="1"><mxGeometry x="500" width="300" height="26" as="geometry" /></mxCell>
        <mxCell id="row9" value="" style="shape=tableRow;horizontal=0;fillColor=#E6F3FF;strokeColor=#000000;" parent="paymentTable" vertex="1"><mxGeometry y="248" width="800" height="26" as="geometry" /></mxCell>
        <mxCell id="r9c1" value="momo_transaction_id" style="shape=partialRectangle;connectable=0;fillColor=#E6F3FF;align=left;" parent="row9" vertex="1"><mxGeometry width="120" height="26" as="geometry" /></mxCell>
        <mxCell id="r9c2" value="String" style="shape=partialRectangle;connectable=0;fillColor=#E6F3FF;align=left;" parent="row9" vertex="1"><mxGeometry x="120" width="90" height="26" as="geometry" /></mxCell>
        <mxCell id="r9c3" value="default: null" style="shape=partialRectangle;connectable=0;fillColor=#E6F3FF;align=left;" parent="row9" vertex="1"><mxGeometry x="210" width="180" height="26" as="geometry" /></mxCell>
        <mxCell id="r9c4" value="null" style="shape=partialRectangle;connectable=0;fillColor=#E6F3FF;align=left;" parent="row9" vertex="1"><mxGeometry x="390" width="110" height="26" as="geometry" /></mxCell>
        <mxCell id="r9c5" value="Mã giao dịch MoMo" style="shape=partialRectangle;connectable=0;fillColor=#E6F3FF;align=left;" parent="row9" vertex="1"><mxGeometry x="500" width="300" height="26" as="geometry" /></mxCell>
        <mxCell id="row10" value="" style="shape=tableRow;horizontal=0;fillColor=#ffffff;strokeColor=#000000;" parent="paymentTable" vertex="1"><mxGeometry y="274" width="800" height="26" as="geometry" /></mxCell>
        <mxCell id="r10c1" value="momo_pay_url" style="shape=partialRectangle;connectable=0;fillColor=#ffffff;align=left;" parent="row10" vertex="1"><mxGeometry width="120" height="26" as="geometry" /></mxCell>
        <mxCell id="r10c2" value="String" style="shape=partialRectangle;connectable=0;fillColor=#ffffff;align=left;" parent="row10" vertex="1"><mxGeometry x="120" width="90" height="26" as="geometry" /></mxCell>
        <mxCell id="r10c3" value="default: null" style="shape=partialRectangle;connectable=0;fillColor=#ffffff;align=left;" parent="row10" vertex="1"><mxGeometry x="210" width="180" height="26" as="geometry" /></mxCell>
        <mxCell id="r10c4" value="null" style="shape=partialRectangle;connectable=0;fillColor=#ffffff;align=left;" parent="row10" vertex="1"><mxGeometry x="390" width="110" height="26" as="geometry" /></mxCell>
        <mxCell id="r10c5" value="URL thanh toán MoMo" style="shape=partialRectangle;connectable=0;fillColor=#ffffff;align=left;" parent="row10" vertex="1"><mxGeometry x="500" width="300" height="26" as="geometry" /></mxCell>
        <mxCell id="row11" value="" style="shape=tableRow;horizontal=0;fillColor=#E6F3FF;strokeColor=#000000;" parent="paymentTable" vertex="1"><mxGeometry y="300" width="800" height="26" as="geometry" /></mxCell>
        <mxCell id="r11c1" value="momo_deeplink" style="shape=partialRectangle;connectable=0;fillColor=#E6F3FF;align=left;" parent="row11" vertex="1"><mxGeometry width="120" height="26" as="geometry" /></mxCell>
        <mxCell id="r11c2" value="String" style="shape=partialRectangle;connectable=0;fillColor=#E6F3FF;align=left;" parent="row11" vertex="1"><mxGeometry x="120" width="90" height="26" as="geometry" /></mxCell>
        <mxCell id="r11c3" value="default: null" style="shape=partialRectangle;connectable=0;fillColor=#E6F3FF;align=left;" parent="row11" vertex="1"><mxGeometry x="210" width="180" height="26" as="geometry" /></mxCell>
        <mxCell id="r11c4" value="null" style="shape=partialRectangle;connectable=0;fillColor=#E6F3FF;align=left;" parent="row11" vertex="1"><mxGeometry x="390" width="110" height="26" as="geometry" /></mxCell>
        <mxCell id="r11c5" value="Deeplink MoMo" style="shape=partialRectangle;connectable=0;fillColor=#E6F3FF;align=left;" parent="row11" vertex="1"><mxGeometry x="500" width="300" height="26" as="geometry" /></mxCell>
        <mxCell id="row12" value="" style="shape=tableRow;horizontal=0;fillColor=#ffffff;strokeColor=#000000;" parent="paymentTable" vertex="1"><mxGeometry y="326" width="800" height="26" as="geometry" /></mxCell>
        <mxCell id="r12c1" value="momo_qr_code_url" style="shape=partialRectangle;connectable=0;fillColor=#ffffff;align=left;" parent="row12" vertex="1"><mxGeometry width="120" height="26" as="geometry" /></mxCell>
        <mxCell id="r12c2" value="String" style="shape=partialRectangle;connectable=0;fillColor=#ffffff;align=left;" parent="row12" vertex="1"><mxGeometry x="120" width="90" height="26" as="geometry" /></mxCell>
        <mxCell id="r12c3" value="default: null" style="shape=partialRectangle;connectable=0;fillColor=#ffffff;align=left;" parent="row12" vertex="1"><mxGeometry x="210" width="180" height="26" as="geometry" /></mxCell>
        <mxCell id="r12c4" value="null" style="shape=partialRectangle;connectable=0;fillColor=#ffffff;align=left;" parent="row12" vertex="1"><mxGeometry x="390" width="110" height="26" as="geometry" /></mxCell>
        <mxCell id="r12c5" value="QR code MoMo" style="shape=partialRectangle;connectable=0;fillColor=#ffffff;align=left;" parent="row12" vertex="1"><mxGeometry x="500" width="300" height="26" as="geometry" /></mxCell>
        <mxCell id="row13" value="" style="shape=tableRow;horizontal=0;fillColor=#E6F3FF;strokeColor=#000000;" parent="paymentTable" vertex="1"><mxGeometry y="352" width="800" height="26" as="geometry" /></mxCell>
        <mxCell id="r13c1" value="payment_status" style="shape=partialRectangle;connectable=0;fillColor=#E6F3FF;align=left;" parent="row13" vertex="1"><mxGeometry width="120" height="26" as="geometry" /></mxCell>
        <mxCell id="r13c2" value="String" style="shape=partialRectangle;connectable=0;fillColor=#E6F3FF;align=left;" parent="row13" vertex="1"><mxGeometry x="120" width="90" height="26" as="geometry" /></mxCell>
        <mxCell id="r13c3" value="enum: ['pending','completed','failed','cancelled','expired'], default: 'pending', index" style="shape=partialRectangle;connectable=0;fillColor=#E6F3FF;align=left;" parent="row13" vertex="1"><mxGeometry x="210" width="180" height="26" as="geometry" /></mxCell>
        <mxCell id="r13c4" value="'pending'" style="shape=partialRectangle;connectable=0;fillColor=#E6F3FF;align=left;" parent="row13" vertex="1"><mxGeometry x="390" width="110" height="26" as="geometry" /></mxCell>
        <mxCell id="r13c5" value="Trạng thái thanh toán" style="shape=partialRectangle;connectable=0;fillColor=#E6F3FF;align=left;" parent="row13" vertex="1"><mxGeometry x="500" width="300" height="26" as="geometry" /></mxCell>
        <mxCell id="row14" value="" style="shape=tableRow;horizontal=0;fillColor=#ffffff;strokeColor=#000000;" parent="paymentTable" vertex="1"><mxGeometry y="378" width="800" height="26" as="geometry" /></mxCell>
        <mxCell id="r14c1" value="payment_method" style="shape=partialRectangle;connectable=0;fillColor=#ffffff;align=left;" parent="row14" vertex="1"><mxGeometry width="120" height="26" as="geometry" /></mxCell>
        <mxCell id="r14c2" value="String" style="shape=partialRectangle;connectable=0;fillColor=#ffffff;align=left;" parent="row14" vertex="1"><mxGeometry x="120" width="90" height="26" as="geometry" /></mxCell>
        <mxCell id="r14c3" value="default: 'momo'" style="shape=partialRectangle;connectable=0;fillColor=#ffffff;align=left;" parent="row14" vertex="1"><mxGeometry x="210" width="180" height="26" as="geometry" /></mxCell>
        <mxCell id="r14c4" value="'momo'" style="shape=partialRectangle;connectable=0;fillColor=#ffffff;align=left;" parent="row14" vertex="1"><mxGeometry x="390" width="110" height="26" as="geometry" /></mxCell>
        <mxCell id="r14c5" value="Phương thức thanh toán" style="shape=partialRectangle;connectable=0;fillColor=#ffffff;align=left;" parent="row14" vertex="1"><mxGeometry x="500" width="300" height="26" as="geometry" /></mxCell>
        <mxCell id="row15" value="" style="shape=tableRow;horizontal=0;fillColor=#E6F3FF;strokeColor=#000000;" parent="paymentTable" vertex="1"><mxGeometry y="404" width="800" height="26" as="geometry" /></mxCell>
        <mxCell id="r15c1" value="created_at" style="shape=partialRectangle;connectable=0;fillColor=#E6F3FF;align=left;" parent="row15" vertex="1"><mxGeometry width="120" height="26" as="geometry" /></mxCell>
        <mxCell id="r15c2" value="Date" style="shape=partialRectangle;connectable=0;fillColor=#E6F3FF;align=left;" parent="row15" vertex="1"><mxGeometry x="120" width="90" height="26" as="geometry" /></mxCell>
        <mxCell id="r15c3" value="default: Date.now, index" style="shape=partialRectangle;connectable=0;fillColor=#E6F3FF;align=left;" parent="row15" vertex="1"><mxGeometry x="210" width="180" height="26" as="geometry" /></mxCell>
        <mxCell id="r15c4" value="Date.now" style="shape=partialRectangle;connectable=0;fillColor=#E6F3FF;align=left;" parent="row15" vertex="1"><mxGeometry x="390" width="110" height="26" as="geometry" /></mxCell>
        <mxCell id="r15c5" value="Ngày tạo đơn" style="shape=partialRectangle;connectable=0;fillColor=#E6F3FF;align=left;" parent="row15" vertex="1"><mxGeometry x="500" width="300" height="26" as="geometry" /></mxCell>
        <mxCell id="row16" value="" style="shape=tableRow;horizontal=0;fillColor=#ffffff;strokeColor=#000000;" parent="paymentTable" vertex="1"><mxGeometry y="430" width="800" height="26" as="geometry" /></mxCell>
        <mxCell id="r16c1" value="completed_at" style="shape=partialRectangle;connectable=0;fillColor=#ffffff;align=left;" parent="row16" vertex="1"><mxGeometry width="120" height="26" as="geometry" /></mxCell>
        <mxCell id="r16c2" value="Date" style="shape=partialRectangle;connectable=0;fillColor=#ffffff;align=left;" parent="row16" vertex="1"><mxGeometry x="120" width="90" height="26" as="geometry" /></mxCell>
        <mxCell id="r16c3" value="default: null" style="shape=partialRectangle;connectable=0;fillColor=#ffffff;align=left;" parent="row16" vertex="1"><mxGeometry x="210" width="180" height="26" as="geometry" /></mxCell>
        <mxCell id="r16c4" value="null" style="shape=partialRectangle;connectable=0;fillColor=#ffffff;align=left;" parent="row16" vertex="1"><mxGeometry x="390" width="110" height="26" as="geometry" /></mxCell>
        <mxCell id="r16c5" value="Ngày hoàn thành thanh toán" style="shape=partialRectangle;connectable=0;fillColor=#ffffff;align=left;" parent="row16" vertex="1"><mxGeometry x="500" width="300" height="26" as="geometry" /></mxCell>
        <mxCell id="row17" value="" style="shape=tableRow;horizontal=0;fillColor=#E6F3FF;strokeColor=#000000;" parent="paymentTable" vertex="1"><mxGeometry y="456" width="800" height="26" as="geometry" /></mxCell>
        <mxCell id="r17c1" value="expired_at" style="shape=partialRectangle;connectable=0;fillColor=#E6F3FF;align=left;" parent="row17" vertex="1"><mxGeometry width="120" height="26" as="geometry" /></mxCell>
        <mxCell id="r17c2" value="Date" style="shape=partialRectangle;connectable=0;fillColor=#E6F3FF;align=left;" parent="row17" vertex="1"><mxGeometry x="120" width="90" height="26" as="geometry" /></mxCell>
        <mxCell id="r17c3" value="default: now+15m" style="shape=partialRectangle;connectable=0;fillColor=#E6F3FF;align=left;" parent="row17" vertex="1"><mxGeometry x="210" width="180" height="26" as="geometry" /></mxCell>
        <mxCell id="r17c4" value="" style="shape=partialRectangle;connectable=0;fillColor=#E6F3FF;align=left;" parent="row17" vertex="1"><mxGeometry x="390" width="110" height="26" as="geometry" /></mxCell>
        <mxCell id="r17c5" value="Hạn thanh toán" style="shape=partialRectangle;connectable=0;fillColor=#E6F3FF;align=left;" parent="row17" vertex="1"><mxGeometry x="500" width="300" height="26" as="geometry" /></mxCell>
        <mxCell id="row18" value="" style="shape=tableRow;horizontal=0;fillColor=#ffffff;strokeColor=#000000;" parent="paymentTable" vertex="1"><mxGeometry y="482" width="800" height="26" as="geometry" /></mxCell>
        <mxCell id="r18c1" value="momo_response" style="shape=partialRectangle;connectable=0;fillColor=#ffffff;align=left;" parent="row18" vertex="1"><mxGeometry width="120" height="26" as="geometry" /></mxCell>
        <mxCell id="r18c2" value="Mixed" style="shape=partialRectangle;connectable=0;fillColor=#ffffff;align=left;" parent="row18" vertex="1"><mxGeometry x="120" width="90" height="26" as="geometry" /></mxCell>
        <mxCell id="r18c3" value="default: null" style="shape=partialRectangle;connectable=0;fillColor=#ffffff;align=left;" parent="row18" vertex="1"><mxGeometry x="210" width="180" height="26" as="geometry" /></mxCell>
        <mxCell id="r18c4" value="null" style="shape=partialRectangle;connectable=0;fillColor=#ffffff;align=left;" parent="row18" vertex="1"><mxGeometry x="390" width="110" height="26" as="geometry" /></mxCell>
        <mxCell id="r18c5" value="Thông tin callback MoMo" style="shape=partialRectangle;connectable=0;fillColor=#ffffff;align=left;" parent="row18" vertex="1"><mxGeometry x="500" width="300" height="26" as="geometry" /></mxCell>
        <mxCell id="row19" value="" style="shape=tableRow;horizontal=0;fillColor=#E6F3FF;strokeColor=#000000;" parent="paymentTable" vertex="1"><mxGeometry y="508" width="800" height="26" as="geometry" /></mxCell>
        <mxCell id="r19c1" value="note" style="shape=partialRectangle;connectable=0;fillColor=#E6F3FF;align=left;" parent="row19" vertex="1"><mxGeometry width="120" height="26" as="geometry" /></mxCell>
        <mxCell id="r19c2" value="String" style="shape=partialRectangle;connectable=0;fillColor=#E6F3FF;align=left;" parent="row19" vertex="1"><mxGeometry x="120" width="90" height="26" as="geometry" /></mxCell>
        <mxCell id="r19c3" value="default: null" style="shape=partialRectangle;connectable=0;fillColor=#E6F3FF;align=left;" parent="row19" vertex="1"><mxGeometry x="210" width="180" height="26" as="geometry" /></mxCell>
        <mxCell id="r19c4" value="null" style="shape=partialRectangle;connectable=0;fillColor=#E6F3FF;align=left;" parent="row19" vertex="1"><mxGeometry x="390" width="110" height="26" as="geometry" /></mxCell>
        <mxCell id="r19c5" value="Ghi chú" style="shape=partialRectangle;connectable=0;fillColor=#E6F3FF;align=left;" parent="row19" vertex="1"><mxGeometry x="500" width="300" height="26" as="geometry" /></mxCell>
        <mxCell id="row20" value="" style="shape=tableRow;horizontal=0;fillColor=#ffffff;strokeColor=#000000;" parent="paymentTable" vertex="1"><mxGeometry y="534" width="800" height="26" as="geometry" /></mxCell>
        <mxCell id="r20c1" value="metadata" style="shape=partialRectangle;connectable=0;fillColor=#ffffff;align=left;" parent="row20" vertex="1"><mxGeometry width="120" height="26" as="geometry" /></mxCell>
        <mxCell id="r20c2" value="Object" style="shape=partialRectangle;connectable=0;fillColor=#ffffff;align=left;" parent="row20" vertex="1"><mxGeometry x="120" width="90" height="26" as="geometry" /></mxCell>
        <mxCell id="r20c3" value="ip_address, user_agent, device_info" style="shape=partialRectangle;connectable=0;fillColor=#ffffff;align=left;" parent="row20" vertex="1"><mxGeometry x="210" width="180" height="26" as="geometry" /></mxCell>
        <mxCell id="r20c4" value="" style="shape=partialRectangle;connectable=0;fillColor=#ffffff;align=left;" parent="row20" vertex="1"><mxGeometry x="390" width="110" height="26" as="geometry" /></mxCell>
        <mxCell id="r20c5" value="Thông tin thiết bị, IP" style="shape=partialRectangle;connectable=0;fillColor=#ffffff;align=left;" parent="row20" vertex="1"><mxGeometry x="500" width="300" height="26" as="geometry" /></mxCell>
        <mxCell id="row21" value="" style="shape=tableRow;horizontal=0;fillColor=#E6F3FF;strokeColor=#000000;" parent="paymentTable" vertex="1"><mxGeometry y="560" width="800" height="26" as="geometry" /></mxCell>
        <mxCell id="r21c1" value="createdAt" style="shape=partialRectangle;connectable=0;fillColor=#E6F3FF;align=left;" parent="row21" vertex="1"><mxGeometry width="120" height="26" as="geometry" /></mxCell>
        <mxCell id="r21c2" value="Date" style="shape=partialRectangle;connectable=0;fillColor=#E6F3FF;align=left;" parent="row21" vertex="1"><mxGeometry x="120" width="90" height="26" as="geometry" /></mxCell>
        <mxCell id="r21c3" value="auto (timestamps)" style="shape=partialRectangle;connectable=0;fillColor=#E6F3FF;align=left;" parent="row21" vertex="1"><mxGeometry x="210" width="180" height="26" as="geometry" /></mxCell>
        <mxCell id="r21c4" value="Date.now" style="shape=partialRectangle;connectable=0;fillColor=#E6F3FF;align=left;" parent="row21" vertex="1"><mxGeometry x="390" width="110" height="26" as="geometry" /></mxCell>
        <mxCell id="r21c5" value="Ngày tạo bản ghi" style="shape=partialRectangle;connectable=0;fillColor=#E6F3FF;align=left;" parent="row21" vertex="1"><mxGeometry x="500" width="300" height="26" as="geometry" /></mxCell>
        <mxCell id="row22" value="" style="shape=tableRow;horizontal=0;fillColor=#ffffff;strokeColor=#000000;" parent="paymentTable" vertex="1"><mxGeometry y="586" width="800" height="26" as="geometry" /></mxCell>
        <mxCell id="r22c1" value="updatedAt" style="shape=partialRectangle;connectable=0;fillColor=#ffffff;align=left;" parent="row22" vertex="1"><mxGeometry width="120" height="26" as="geometry" /></mxCell>
        <mxCell id="r22c2" value="Date" style="shape=partialRectangle;connectable=0;fillColor=#ffffff;align=left;" parent="row22" vertex="1"><mxGeometry x="120" width="90" height="26" as="geometry" /></mxCell>
        <mxCell id="r22c3" value="auto (timestamps)" style="shape=partialRectangle;connectable=0;fillColor=#ffffff;align=left;" parent="row22" vertex="1"><mxGeometry x="210" width="180" height="26" as="geometry" /></mxCell>
        <mxCell id="r22c4" value="Date.now" style="shape=partialRectangle;connectable=0;fillColor=#ffffff;align=left;" parent="row22" vertex="1"><mxGeometry x="390" width="110" height="26" as="geometry" /></mxCell>
        <mxCell id="r22c5" value="Ngày cập nhật bản ghi" style="shape=partialRectangle;connectable=0;fillColor=#ffffff;align=left;" parent="row22" vertex="1"><mxGeometry x="500" width="300" height="26" as="geometry" /></mxCell>
      </root>
    </mxGraphModel>
  </diagram>
</mxfile>
